<?xml version="1.0" standalone="no"?>
<!DOCTYPE svg PUBLIC "-//W3C//DTD SVG 20010904//EN"
 "http://www.w3.org/TR/2001/REC-SVG-20010904/DTD/svg10.dtd">
<svg version="1.0" xmlns="http://www.w3.org/2000/svg"
 width="300.000000pt" height="112.000000pt" viewBox="0 0 300.000000 112.000000"
 preserveAspectRatio="xMidYMid meet">

<g transform="translate(0.000000,112.000000) scale(0.100000,-0.100000)"
fill="#000000" stroke="none">
<path d="M295 849 c-33 -21 -64 -40 -69 -42 -5 -2 -2 -14 5 -27 8 -14 15 -27
16 -29 1 -1 28 13 60 33 32 20 63 36 68 36 6 0 32 -18 59 -40 49 -41 59 -42
76 -10 8 15 0 26 -51 69 -34 29 -70 51 -82 50 -12 0 -49 -18 -82 -40z"/>
<path d="M735 804 c-113 -41 -177 -189 -130 -301 41 -97 115 -145 221 -145
123 1 205 75 228 205 l7 37 -126 0 -125 0 0 -35 0 -35 55 0 c59 0 66 -7 35
-35 -25 -22 -98 -30 -130 -13 -62 33 -75 136 -24 190 44 45 118 42 164 -7 20
-21 32 -25 83 -25 l59 0 -7 28 c-8 34 -46 85 -82 110 -63 43 -153 54 -228 26z"/>
<path d="M1180 697 c-133 -70 -113 -288 29 -332 39 -12 111 -7 137 10 14 9 25
11 29 5 3 -6 26 -10 51 -10 l44 0 0 170 0 170 -44 0 c-24 0 -46 -5 -48 -10 -2
-7 -16 -5 -40 5 -53 21 -108 19 -158 -8z m139 -92 c48 -24 56 -81 16 -120 -30
-30 -64 -32 -99 -4 -42 33 -32 109 17 129 31 12 34 12 66 -5z"/>
<path d="M1673 699 c-29 -19 -34 -19 -39 -5 -4 11 -19 16 -50 16 l-44 0 0
-170 0 -170 60 0 60 0 0 106 c0 115 9 144 43 144 41 0 47 -17 47 -137 l0 -113
55 0 55 0 0 106 c0 58 5 114 10 125 13 24 65 26 74 3 3 -9 6 -65 6 -125 l0
-109 60 0 60 0 0 106 c0 177 -26 231 -114 241 -34 4 -54 1 -81 -16 -35 -20
-35 -20 -68 -1 -41 26 -94 25 -134 -1z"/>
<path d="M2215 704 c-45 -23 -66 -45 -86 -89 -32 -68 -18 -147 34 -203 53 -58
150 -71 226 -32 36 18 81 69 81 93 0 14 -111 8 -126 -8 -21 -21 -77 -19 -97 3
-34 38 -23 42 108 42 l125 0 0 34 c0 69 -44 135 -107 162 -43 19 -121 18 -158
-2z m115 -84 c11 -6 24 -19 30 -30 10 -19 7 -20 -60 -20 -74 0 -83 7 -50 40
22 22 51 26 80 10z"/>
<path d="M2584 706 c-42 -18 -64 -52 -64 -98 0 -55 32 -86 110 -107 52 -13 65
-20 65 -36 0 -29 -50 -33 -65 -5 -10 18 -19 21 -63 18 -46 -3 -52 -5 -49 -23
5 -30 35 -68 66 -83 36 -18 128 -17 165 2 42 22 61 54 61 101 0 51 -25 80 -83
96 -23 6 -53 15 -67 19 -33 9 -38 36 -9 45 17 6 27 2 40 -14 13 -16 28 -21 63
-21 24 0 47 3 50 8 10 16 -25 73 -56 92 -39 23 -117 26 -164 6z"/>
<path d="M210 580 l0 -131 38 -39 c78 -84 225 -67 274 31 14 27 18 59 18 152
l0 117 -60 0 -59 0 -3 -117 -3 -118 -29 -10 c-24 -8 -31 -6 -47 14 -16 19 -19
40 -19 127 l0 104 -55 0 -55 0 0 -130z"/>
</g>
</svg>
