<?xml version="1.0" standalone="no"?>
<!DOCTYPE svg PUBLIC "-//W3C//DTD SVG 20010904//EN"
 "http://www.w3.org/TR/2001/REC-SVG-20010904/DTD/svg10.dtd">
<svg version="1.0" xmlns="http://www.w3.org/2000/svg"
 width="300.000000pt" height="112.000000pt" viewBox="0 0 300.000000 112.000000"
 preserveAspectRatio="xMidYMid meet">

<g transform="translate(0.000000,112.000000) scale(0.100000,-0.100000)"
fill="#000000" stroke="none">
<path d="M295 849 c-33 -21 -64 -40 -69 -42 -5 -2 -2 -14 5 -27 8 -14 15 -27
16 -29 1 -1 28 13 60 33 32 20 63 36 68 36 6 0 32 -18 59 -40 49 -41 59 -42
76 -10 8 15 0 26 -51 69 -34 29 -70 51 -82 50 -12 0 -49 -18 -82 -40z"/>
</g>
</svg>
